<svg xmlns="http://www.w3.org/2000/svg" viewBox="0 0 251.71 342.03"><defs><style>.cls-1{fill:#fff;}.cls-2{fill:none;stroke:#fff;stroke-linecap:round;stroke-linejoin:round;stroke-width:12px;}</style></defs><title>Asset 14</title><g id="Layer_2" data-name="Layer 2"><g id="Layer_13" data-name="Layer 13"><path class="cls-1" d="M82.61,286.6,67.44,211.5c-1.53-7.56-13.1-4.36-11.57,3.19L71,289.79c1.53,7.56,13.1,4.36,11.57-3.19Z"/><path class="cls-1" d="M117.08,289V212.27c0-7.72-12-7.73-12,0V289c0,7.72,12,7.73,12,0Z"/><path class="cls-1" d="M150.05,117.41c14.64,2,29.76,4.9,43.34,11,6,2.7,16.21,7.85,16.79,14.41.15,1.73-.76,3.71-2.32,5.56-2.52,3-6,5.15-9.35,7-10.44,5.72-22.36,8.76-34,11.08-31.22,6.26-64.58,6.64-96,1.91-13-1.95-26.19-4.72-38.32-9.83-6.16-2.6-15.12-6.93-17.67-12.86-.95-2.2-.82-4.21,1.13-6.92,2.71-3.77,7.11-6.31,11.14-8.42,14.34-7.51,31.11-10.62,47-12.86,7.62-1.07,4.38-12.64-3.19-11.57-16.47,2.32-33.2,5.86-48.23,13.25C11.34,123.56,1,130.82.06,141.75c-.78,9.36,6.14,16.59,13.35,21.44,10.77,7.24,24.05,11.09,36.58,13.89,35.74,8,74,8.25,110,2.34,14.28-2.35,28.68-5.85,41.72-12.25,8.13-4,17.3-10.12,19.81-19.4,3.19-11.75-6.42-21.08-15.67-26.47-15.81-9.19-34.77-13-52.65-15.46-3.24-.45-6.41.79-7.38,4.19-.81,2.8,1,6.94,4.19,7.38Z"/><path class="cls-1" d="M210.4,141.54l-16,79.06c-6,29.87-12.52,59.7-18.12,89.66a24.62,24.62,0,0,0-.45,3c-.73,2.37-4.3,4.93-7.45,6.6-13,6.89-29.08,8.79-43.51,9.72-17.84,1.15-36.15.41-53.6-3.68-6.17-1.45-12.42-3.23-18-6.28-3-1.65-6.29-4.1-7-6.36a21.3,21.3,0,0,0-.47-3.06c-.26-1.42-.57-2.84-.86-4.25l-3.39-16.79L30.7,235.28c-6.19-30.63-11.61-61.53-18.59-92-.13-.57-.23-1.16-.35-1.74C10.23,134-1.34,137.18.19,144.73L17,227.7c5.84,28.89,12.35,57.73,17.53,86.74-.29-1.63-.1.63.25,2A16.66,16.66,0,0,0,38,322.59c3.15,3.93,7.61,6.7,12.12,8.8,14.36,6.65,30.61,9,46.27,10.11a199,199,0,0,0,55.52-3.57c11-2.4,24.87-6.08,32.29-15.34a16.42,16.42,0,0,0,3.17-5.87,24.28,24.28,0,0,0,.4-2.62c-.15.91-.1.51-.06.31.17-1,.4-2,.6-3l3.06-15.16,10.8-53.45c6.48-32.08,13.22-64.12,19.45-96.26.12-.61.25-1.23.37-1.85,1.53-7.54-10-10.76-11.57-3.19Z"/><path class="cls-1" d="M151.12,289.79l15.17-75.1c1.53-7.54-10-10.77-11.57-3.19l-15.17,75.1c-1.53,7.54,10,10.77,11.57,3.19Z"/><path class="cls-1" d="M207.29,93.19c6.16,6.1,19.33,2.77,29.42-7.43s13.38-23.52,7.11-29.5a14.88,14.88,0,0,0-9.47-4.41c-2.39-.18-13.59-29.15-13.07-33.17,9.71,5.44,15,15.8,30.43,12.87-11.88-4-14.8-17-25.2-24.42-10.61-7.61-23-7-34.8-7.13C214.12,16,224.63,56.08,223,57a40.91,40.91,0,0,0-8.56,6.65C204.31,73.89,201.13,87.1,207.29,93.19Z"/><path id="primary" class="cls-2" d="M99.89,126.31l17.54-28.44c18-29.23,48.16-46.49,74.79-42.85"/><polyline id="primary-2" class="cls-2" points="92.94 96.95 99.89 126.31 129.26 119.35"/></g></g></svg>