<svg xmlns="http://www.w3.org/2000/svg" viewBox="0 0 1004.5 1674.78"><title>Asset 5</title><g id="Layer_2" data-name="Layer 2"><g id="Layer_6" data-name="Layer 6"><path d="M1004,80.57C1004,33.33,993.36,0,917.36,0,812.29,0,712.19,57.52,712.19,57.52,665.42,82.18,593.1,134.06,503,134.06l-.48,0h0v0H502v0h0l-.48,0c-90.12,0-162.44-51.88-209.21-76.54,0,0-100.1-57.52-205.17-57.52C11.14,0,.5,33.33.5,80.57s-.5,1122-.5,1122c0,298.35,221.3,471.75,501.31,472.24h1.88c280-.49,501.31-173.89,501.31-472.24C1004.5,1202.53,1004,127.82,1004,80.57Z"/></g></g></svg>