<svg xmlns="http://www.w3.org/2000/svg" viewBox="0 0 483.97 210.23"><defs><style>.cls-1{fill:#fff;}.cls-2{fill:none;stroke:#fff;stroke-linecap:round;stroke-linejoin:round;stroke-width:20px;}</style></defs><title>Asset 22</title><g id="Layer_2" data-name="Layer 2"><g id="Layer_11" data-name="Layer 11"><path class="cls-1" d="M252.57,114.46a9.37,9.37,0,0,0-18.73,0Zm-9.36,86.4h-9.37a9.37,9.37,0,0,0,12.86,8.69Zm71.73-28.8,3.49,8.69a9.36,9.36,0,0,0,5.88-8.69Zm9.37-59.87a9.37,9.37,0,0,0-18.74,0ZM248.89,107a9.37,9.37,0,0,0-11.37,14.89Zm19.89,27-5.68,7.44a9.38,9.38,0,0,0,9.69,1Zm50.13-13.35a9.37,9.37,0,0,0-8-16.94Zm-79.19-14.89a9.37,9.37,0,0,0,7,17.39Zm78.71-11.41a9.37,9.37,0,0,0-7-17.39Zm-7,0a9.37,9.37,0,0,0,7-17.39ZM246.7,48.19a9.36,9.36,0,1,0-7,17.38Zm72.83,29.32a9.37,9.37,0,0,0-9.18,16.33Zm14.05,25.69,4,8.47A9.37,9.37,0,0,0,338.17,95Zm-22.68.52a9.37,9.37,0,0,0,8,16.94ZM308,79.38A9.37,9.37,0,1,0,321.85,92Zm-72-28.49a9.37,9.37,0,0,0,14.41,12ZM167.92,77a9.37,9.37,0,0,0,7,17.39Zm78.71-11.4a9.36,9.36,0,1,0-7-17.38ZM176,93.83a9.37,9.37,0,1,0-9.18-16.33Zm-30.2,6.23-4.59-8.16a9.37,9.37,0,0,0,.58,16.63Zm21.6,20.6a9.37,9.37,0,1,0,8-16.94ZM174.9,77a9.37,9.37,0,0,0-7,17.39Zm64.76,46.19a9.37,9.37,0,1,0,7-17.39ZM164.41,91.89a9.37,9.37,0,0,0,14-12.45Zm71.53-29a9.36,9.36,0,1,0,14.41-12Zm16.57,51.62a9.37,9.37,0,1,0-18.73,0Zm-9.37,86.38-3.48,8.69a9.36,9.36,0,0,0,12.85-8.69Zm-71.73-28.8h-9.36a9.35,9.35,0,0,0,5.87,8.69Zm9.37-59.87a9.37,9.37,0,1,0-18.73,0Zm68.05,9.72A9.37,9.37,0,0,0,237.46,107ZM217.53,134l-4,8.47a9.36,9.36,0,0,0,9.68-1Zm-42.11-30.29a9.37,9.37,0,1,0-8,16.94Zm58.42,10.74v86.4h18.73v-86.4Zm12.86,95.09,71.73-28.8-7-17.38-71.73,28.8Zm77.61-37.49V112.19H305.57v59.87Zm-86.79-50.15,25.58,19.54,11.37-14.88L248.89,107Zm35.27,20.57,46.12-21.82-8-16.94-46.12,21.82ZM246.7,123.16l71.73-28.8-7-17.39-71.73,28.8ZM318.43,77,246.7,48.19l-7,17.38,71.73,28.79Zm-8.08,16.87L336,108.24,339.61,96l-18-17ZM338.17,95l-27.27,8.69,8,16.94,18.68-9ZM174.9,94.36l71.73-28.79-7-17.38L167.92,77ZM166.82,77.5,141.21,91.9l9.18,16.33L176,93.83Zm-25,31,25.61,12.13,8-16.94L149.81,91.6ZM173.8,89l68.26,32.55,4.57-15.79L192.16,81.58Zm-9.39,2.88,14-12.45m55.37,35v86.38h18.73V114.48Zm12.85,77.69-71.73-28.8-7,17.38,71.74,28.8Zm-65.85-20.11V112.19H162.05v59.87Zm56.68-65-25.61,19.54,11.36,14.89,25.62-19.54Zm-15.92,18.52-46.12-21.82-8,16.94,46.12,21.82Z"/><polygon class="cls-1" points="196.55 172.06 174.9 163.37 171.41 172.06 167.92 180.75 239.66 209.55 246.63 192.17 196.55 172.06"/><polygon class="cls-1" points="178.34 124.22 178.34 166.52 236.34 189.95 236.21 131.22 178.34 124.22"/><polygon class="cls-1" points="254.05 118.98 264.11 126.67 330.05 97.66 320.1 92.47 254.05 118.98"/><path id="primary" class="cls-2" d="M338.17,66.25l27.72-27.72A93.67,93.67,0,0,1,474,21"/><polyline id="primary-2" class="cls-2" points="338.17 36.07 338.17 66.25 368.35 66.25"/><path id="primary-2-2" data-name="primary" class="cls-2" d="M10,19.87A93.69,93.69,0,0,1,118.08,37.43L145.8,65.14"/><polyline id="primary-2-3" data-name="primary-2" class="cls-2" points="115.62 65.14 145.8 65.14 145.8 34.96"/></g></g></svg>