<svg xmlns="http://www.w3.org/2000/svg" viewBox="0 0 186.52 167.58"><defs><style>.cls-1{fill:#fff;}</style></defs><title>Asset 11</title><g id="Layer_2" data-name="Layer 2"><g id="Layer_9" data-name="Layer 9"><path class="cls-1" d="M25,104.81a2.55,2.55,0,0,0,4.1,0L53.47,75c1.13-1.39.6-2.51-1.19-2.51h-13a2.55,2.55,0,0,1-2.62-3.18,67.6,67.6,0,1,1,66,82.11,8.1,8.1,0,0,0,0,16.19A83.79,83.79,0,1,0,20.22,69.26a3.93,3.93,0,0,1-3.73,3.2H1.78C0,72.46-.54,73.58.59,75Z"/><path class="cls-1" d="M118.11,119.76a51.93,51.93,0,0,1-8.54-.86v-28h-17v28a52.85,52.85,0,0,1-8.45.86,51.72,51.72,0,0,1-8.54-.86V50.35c1.72-.25,3.29-.45,4.7-.57s2.66-.2,3.74-.2,2.45.07,3.89.2,3,.32,4.66.57V75.79h17V50.35c1.73-.25,3.28-.45,4.66-.57s2.64-.2,3.79-.2,2.45.07,3.89.2,3,.32,4.65.57V118.9A52.85,52.85,0,0,1,118.11,119.76Z"/></g></g></svg>