<svg xmlns="http://www.w3.org/2000/svg" viewBox="0 0 676.38 594.14"><defs><style>.cls-1{fill:#fff;}</style></defs><title>Asset 6</title><g id="Layer_2" data-name="Layer 2"><g id="Layer_8" data-name="Layer 8"><path class="cls-1" d="M273.55,387.25c10,18.79,43.28,20.64,74.4,4.13s48.59-45.31,38.28-63.92c-5.16-9.32-11.65-14.35-19-17.27-5.48-2.19-10.49-78.27-6.33-87.31,18.78,19.85,23.65,48,61.89,52.44-24.93-18-22.27-50.59-41.18-75.7-19.28-25.59-48.84-33.2-76.31-42.2,40.76,54,36,155.54,31.44,156.57a100.3,100.3,0,0,0-24.95,9.33C280.72,339.83,263.58,368.45,273.55,387.25Z"/><path class="cls-1" d="M451.39,222.8c34,46.49,34.3,93,7.37,148.54C505.25,336.76,508.09,254,451.39,222.8Z"/><path class="cls-1" d="M481.44,148.54c68,93,68.6,186,14.74,297.07C589.16,376.44,594.83,210.9,481.44,148.54Z"/><path class="cls-1" d="M506.79,0C642.85,186,644,371.91,536.27,594.14,722.22,455.81,733.56,124.72,506.79,0Z"/><path class="cls-1" d="M225,222.8c-34,46.49-34.3,93-7.37,148.54C171.13,336.76,168.29,254,225,222.8Z"/><path class="cls-1" d="M194.94,148.54c-68,93-68.6,186-14.74,297.07C87.22,376.44,81.55,210.9,194.94,148.54Z"/><path class="cls-1" d="M169.59,0C33.52,186,32.39,371.91,140.11,594.14-45.85,455.81-57.18,124.72,169.59,0Z"/></g></g></svg>