<svg xmlns="http://www.w3.org/2000/svg" viewBox="0 0 133.08 140.09"><defs><style>.cls-1{fill:#fff;fill-rule:evenodd;}</style></defs><title>Asset 13</title><g id="Layer_2" data-name="Layer 2"><g id="Layer_12" data-name="Layer 12"><path class="cls-1" d="M79,1.07C76.41,0,73.12,0,66.54,0S56.68,0,54.08,1.07a14.08,14.08,0,0,0-7.64,7.58,17.21,17.21,0,0,0-1,6,11.28,11.28,0,0,1-5.57,9.47,11.5,11.5,0,0,1-11.06.06A17.35,17.35,0,0,0,23,22.07a14.18,14.18,0,0,0-10.44,2.78C10.35,26.54,8.71,29.37,5.42,35S.49,43.5.12,46.26a13.93,13.93,0,0,0,2.8,10.36,17.17,17.17,0,0,0,4.77,3.89,11,11,0,0,1,0,19.07,17.17,17.17,0,0,0-4.77,3.89A13.91,13.91,0,0,0,.12,93.82c.37,2.77,2,5.59,5.3,11.25s4.93,8.48,7.16,10.17A14.23,14.23,0,0,0,23,118a17.57,17.57,0,0,0,5.78-2.16,11.47,11.47,0,0,1,11.06.06,11.28,11.28,0,0,1,5.57,9.47,17.26,17.26,0,0,0,1,6A14.08,14.08,0,0,0,54.08,139c2.6,1.07,5.88,1.07,12.46,1.07s9.87,0,12.46-1.07a14.05,14.05,0,0,0,7.64-7.58,17.26,17.26,0,0,0,1-6,11.31,11.31,0,0,1,5.58-9.47,11.47,11.47,0,0,1,11.06-.06,17.72,17.72,0,0,0,5.78,2.16,14.22,14.22,0,0,0,10.43-2.78c2.23-1.7,3.87-4.52,7.16-10.17s4.94-8.48,5.3-11.25a13.94,13.94,0,0,0-2.79-10.35,17.23,17.23,0,0,0-4.78-3.89,11,11,0,0,1,0-19.07,17.23,17.23,0,0,0,4.78-3.89A13.92,13.92,0,0,0,133,46.26c-.36-2.76-2-5.59-5.3-11.24s-4.93-8.48-7.16-10.17a14.17,14.17,0,0,0-10.43-2.78,17.27,17.27,0,0,0-5.78,2.16,11.49,11.49,0,0,1-11.06-.06,11.32,11.32,0,0,1-5.58-9.48,17.2,17.2,0,0,0-1-6A14.05,14.05,0,0,0,79,1.07Zm-12.46,90A21,21,0,1,0,45.37,70,21.09,21.09,0,0,0,66.54,91.06Z"/></g></g></svg>