<svg xmlns="http://www.w3.org/2000/svg" viewBox="0 0 144.79 144.78"><defs><style>.cls-1{fill:#fff;}</style></defs><title>Asset 8</title><g id="Layer_2" data-name="Layer 2"><g id="Layer_10" data-name="Layer 10"><path class="cls-1" d="M144.32,54.55a9.05,9.05,0,0,0-7.22-6.07l-39-6L80.59,5.21a9.05,9.05,0,0,0-16.39,0L46.68,42.53l-39,5.95A9.06,9.06,0,0,0,2.57,63.75L31.05,93l-6.74,41.32a9.05,9.05,0,0,0,13.32,9.38L72.4,124.43l34.76,19.22a9.05,9.05,0,0,0,13.32-9.38L113.74,93l28.48-29.2A9.07,9.07,0,0,0,144.32,54.55Z"/></g></g></svg>